<svg id="svg" version="1.1" xmlns="http://www.w3.org/2000/svg" xmlns:xlink="http://www.w3.org/1999/xlink" width="24" height="24" viewBox="0, 0, 400,398.95833333333337"><g id="svgg"><path id="path0" d="M398.501 185.497 C 398.225 185.607,398.101 185.861,398.225 186.062 C 398.349 186.263,398.260 186.427,398.028 186.427 C 397.795 186.427,397.605 186.670,397.605 186.967 C 397.605 187.264,397.066 188.070,396.407 188.760 C 395.749 189.449,395.210 190.294,395.210 190.639 C 395.210 190.983,395.051 191.167,394.857 191.047 C 394.663 190.927,394.282 191.365,394.010 192.021 C 393.738 192.677,393.399 193.214,393.256 193.214 C 393.113 193.214,392.660 193.837,392.250 194.599 C 391.839 195.361,391.345 195.887,391.151 195.767 C 390.957 195.647,390.848 195.714,390.908 195.916 C 391.020 196.290,389.581 198.387,388.323 199.680 C 387.939 200.076,387.736 200.399,387.873 200.399 C 388.116 200.399,384.722 204.604,383.846 205.389 C 383.601 205.609,383.014 206.420,382.543 207.192 C 382.072 207.965,381.226 209.029,380.664 209.557 C 380.101 210.086,379.641 210.659,379.641 210.830 C 379.641 211.001,379.237 211.564,378.743 212.080 C 378.249 212.596,376.946 214.078,375.848 215.373 C 374.750 216.668,373.268 218.288,372.555 218.972 C 371.841 219.656,371.257 220.324,371.257 220.455 C 371.257 221.143,355.976 236.727,355.301 236.727 C 355.049 236.727,354.935 236.875,355.047 237.056 C 355.159 237.237,354.515 237.994,353.616 238.738 C 352.717 239.481,351.263 240.855,350.386 241.791 C 349.509 242.726,348.637 243.396,348.448 243.279 C 348.259 243.162,348.104 243.335,348.104 243.662 C 348.104 243.990,347.742 244.372,347.300 244.513 C 346.857 244.653,346.599 244.936,346.726 245.141 C 346.853 245.347,346.641 245.636,346.255 245.784 C 345.870 245.932,344.994 246.604,344.311 247.278 C 342.332 249.228,340.049 251.212,338.323 252.482 C 337.445 253.128,336.492 253.979,336.205 254.373 C 335.918 254.767,335.464 255.090,335.195 255.090 C 334.927 255.090,334.448 255.449,334.132 255.888 C 333.815 256.327,333.333 256.687,333.060 256.687 C 332.787 256.687,332.377 257.034,332.150 257.458 C 331.923 257.882,331.378 258.343,330.939 258.483 C 330.499 258.622,330.140 258.994,330.140 259.308 C 330.140 259.623,329.997 259.880,329.822 259.880 C 329.445 259.880,328.002 260.929,326.689 262.158 C 326.172 262.642,325.749 262.922,325.749 262.780 C 325.749 262.638,325.524 262.790,325.250 263.118 C 324.619 263.871,320.958 266.784,320.958 266.533 C 320.958 266.430,320.410 266.858,319.740 267.484 C 319.070 268.110,318.172 268.733,317.744 268.869 C 317.316 269.005,316.966 269.283,316.966 269.488 C 316.966 269.693,316.697 269.860,316.367 269.860 C 316.038 269.860,315.768 270.040,315.768 270.259 C 315.768 270.479,315.579 270.659,315.348 270.659 C 315.116 270.659,314.353 271.197,313.651 271.854 C 312.949 272.512,312.166 273.051,311.910 273.052 C 311.653 273.053,311.384 273.189,311.311 273.353 C 311.165 273.682,308.731 275.449,308.424 275.449 C 308.319 275.449,307.642 275.989,306.919 276.649 C 306.197 277.309,305.243 277.963,304.799 278.103 C 304.355 278.243,303.723 278.665,303.393 279.040 C 303.064 279.415,302.166 280.043,301.397 280.436 C 300.629 280.828,299.910 281.259,299.800 281.393 C 299.440 281.833,297.232 283.296,295.846 284.013 C 295.098 284.399,294.121 285.056,293.675 285.472 C 293.229 285.887,292.538 286.228,292.140 286.228 C 291.743 286.228,291.417 286.413,291.417 286.640 C 291.417 286.866,291.103 287.185,290.719 287.348 C 290.334 287.511,289.301 288.088,288.423 288.632 C 287.545 289.175,286.678 289.570,286.497 289.510 C 286.316 289.450,286.279 289.580,286.414 289.799 C 286.549 290.017,286.210 290.309,285.661 290.447 C 285.113 290.584,284.456 290.947,284.203 291.252 C 283.949 291.558,283.583 291.709,283.388 291.589 C 283.193 291.468,283.034 291.545,283.034 291.759 C 283.034 292.231,279.947 293.998,278.476 294.367 C 277.891 294.514,277.507 294.788,277.623 294.975 C 277.836 295.320,275.504 296.478,274.950 296.303 C 274.785 296.250,274.651 296.358,274.651 296.543 C 274.651 296.889,273.071 297.731,272.572 297.651 C 272.417 297.625,272.058 297.891,271.774 298.242 C 271.490 298.592,270.629 299.120,269.860 299.415 C 269.092 299.710,267.924 300.349,267.265 300.836 C 266.607 301.323,263.944 302.805,261.349 304.129 C 258.754 305.453,256.418 306.702,256.159 306.906 C 255.900 307.109,255.207 307.390,254.619 307.530 C 254.030 307.671,253.303 308.031,253.003 308.331 C 252.703 308.631,252.017 309.011,251.478 309.175 C 250.940 309.339,249.870 309.808,249.102 310.219 C 248.333 310.629,247.255 311.147,246.707 311.369 C 246.158 311.592,245.439 311.941,245.110 312.145 C 243.963 312.853,235.694 316.567,235.263 316.567 C 235.024 316.567,234.623 316.814,234.373 317.116 C 234.122 317.418,233.112 317.890,232.128 318.166 C 231.144 318.441,230.339 318.823,230.339 319.014 C 230.339 319.205,230.051 319.361,229.699 319.361 C 229.346 319.361,228.167 319.809,227.077 320.356 C 225.987 320.904,224.645 321.433,224.094 321.533 C 223.544 321.633,222.270 322.113,221.263 322.600 C 220.257 323.088,219.192 323.486,218.898 323.486 C 218.604 323.486,218.363 323.647,218.363 323.843 C 218.363 324.039,218.199 324.097,217.998 323.973 C 217.797 323.849,217.573 323.887,217.499 324.057 C 217.426 324.227,215.569 325.073,213.373 325.937 C 211.178 326.801,209.202 327.630,208.982 327.779 C 208.486 328.118,205.905 328.726,205.459 328.609 C 205.278 328.562,205.233 328.689,205.359 328.893 C 205.484 329.096,204.644 329.483,203.492 329.753 C 202.340 330.023,201.218 330.369,200.998 330.522 C 200.332 330.987,196.913 332.177,196.062 332.241 C 195.624 332.274,195.344 332.429,195.440 332.585 C 195.537 332.741,195.030 332.996,194.315 333.152 C 193.599 333.308,192.565 333.627,192.016 333.861 C 191.467 334.096,190.838 334.315,190.619 334.348 C 190.168 334.416,189.628 334.590,187.625 335.313 C 186.856 335.591,185.419 336.094,184.431 336.433 C 183.443 336.771,182.006 337.267,181.238 337.534 C 177.852 338.713,173.280 340.088,171.257 340.536 C 170.050 340.804,168.882 341.155,168.663 341.318 C 168.313 341.576,167.278 341.830,164.303 342.387 C 163.881 342.466,163.342 342.690,163.105 342.885 C 162.507 343.378,158.179 344.473,157.907 344.201 C 157.785 344.079,157.685 344.188,157.685 344.444 C 157.685 344.701,157.280 344.913,156.786 344.916 C 156.292 344.919,155.080 345.206,154.092 345.552 C 152.140 346.237,151.563 346.393,149.007 346.927 C 148.076 347.121,146.100 347.636,144.616 348.071 C 143.131 348.507,141.261 348.939,140.461 349.033 C 139.661 349.126,138.777 349.344,138.498 349.516 C 138.218 349.689,136.538 350.144,134.763 350.527 C 132.989 350.910,130.818 351.405,129.940 351.626 C 128.302 352.039,125.692 352.507,124.451 352.609 C 124.067 352.640,123.752 352.828,123.752 353.026 C 123.752 353.224,123.393 353.293,122.954 353.178 C 122.516 353.063,122.067 353.114,121.957 353.292 C 121.848 353.469,120.635 353.742,119.262 353.899 C 117.890 354.056,116.407 354.267,115.968 354.367 C 115.529 354.467,114.900 354.581,114.571 354.620 C 114.242 354.659,113.878 354.814,113.764 354.965 C 113.650 355.116,111.943 355.468,109.972 355.746 C 108.000 356.024,106.297 356.364,106.188 356.500 C 106.078 356.637,104.102 356.982,101.796 357.266 C 99.491 357.551,97.428 357.887,97.213 358.015 C 96.997 358.142,96.548 358.279,96.215 358.320 C 95.881 358.361,94.800 358.498,93.812 358.623 C 92.824 358.749,91.028 358.973,89.820 359.121 C 88.613 359.270,87.445 359.513,87.226 359.662 C 87.006 359.811,86.153 359.912,85.329 359.888 C 84.506 359.863,83.832 359.986,83.832 360.161 C 83.832 360.336,83.473 360.479,83.034 360.479 C 81.499 360.479,83.692 362.922,86.619 364.472 C 87.163 364.760,87.830 365.193,88.102 365.432 C 89.163 366.370,89.775 366.777,93.613 369.098 C 94.930 369.895,96.098 370.662,96.208 370.802 C 96.318 370.943,97.036 371.399,97.805 371.817 C 98.573 372.234,99.651 372.835,100.200 373.151 C 103.116 374.834,107.207 377.012,110.579 378.677 C 112.665 379.707,114.461 380.675,114.571 380.829 C 114.681 380.982,115.130 381.212,115.569 381.338 C 116.008 381.465,118.523 382.495,121.158 383.628 C 123.792 384.761,126.756 385.989,127.745 386.357 C 128.733 386.725,129.673 387.206,129.834 387.425 C 129.996 387.645,130.130 387.706,130.134 387.561 C 130.137 387.415,131.352 387.747,132.834 388.297 C 134.316 388.847,136.158 389.474,136.926 389.690 C 137.695 389.905,139.311 390.415,140.519 390.822 C 141.727 391.230,143.253 391.695,143.912 391.857 C 145.492 392.244,145.690 392.301,145.808 392.396 C 145.863 392.440,146.178 392.543,146.507 392.625 C 146.836 392.707,149.351 393.340,152.096 394.033 C 154.840 394.725,157.445 395.340,157.884 395.399 C 158.323 395.458,158.683 395.544,158.683 395.588 C 158.683 395.712,159.534 395.876,163.673 396.550 C 169.500 397.499,170.156 397.602,171.657 397.812 C 172.425 397.919,173.468 398.102,173.974 398.218 C 177.338 398.990,214.527 399.393,221.357 398.731 C 222.894 398.582,225.454 398.332,227.046 398.175 C 228.638 398.018,229.940 397.761,229.940 397.605 C 229.940 397.448,231.332 397.198,233.034 397.049 C 234.736 396.899,237.295 396.506,238.723 396.174 C 240.150 395.842,241.677 395.493,242.116 395.398 C 246.930 394.363,248.526 393.983,251.098 393.259 C 252.745 392.796,254.361 392.345,254.691 392.257 C 258.691 391.186,263.006 389.838,264.471 389.200 C 264.910 389.009,266.299 388.565,267.557 388.213 C 268.816 387.861,269.949 387.405,270.076 387.199 C 270.203 386.994,270.599 386.826,270.955 386.826 C 271.312 386.826,272.335 386.480,273.227 386.056 C 274.120 385.633,275.614 385.087,276.547 384.843 C 277.480 384.600,278.244 384.248,278.244 384.061 C 278.244 383.874,278.854 383.607,279.601 383.467 C 280.347 383.327,281.163 382.965,281.413 382.663 C 281.664 382.361,282.356 381.993,282.951 381.845 C 283.545 381.697,285.963 380.616,288.323 379.441 C 290.684 378.267,292.615 377.410,292.615 377.538 C 292.615 377.665,292.929 377.494,293.313 377.157 C 293.925 376.622,297.033 374.869,300.798 372.935 C 301.457 372.597,302.140 372.081,302.315 371.789 C 302.491 371.497,302.850 371.257,303.114 371.257 C 303.377 371.257,304.628 370.538,305.892 369.660 C 307.157 368.782,308.348 368.064,308.538 368.064 C 308.729 368.064,309.106 367.796,309.378 367.469 C 309.649 367.143,310.011 366.962,310.183 367.068 C 310.355 367.174,310.584 367.037,310.693 366.764 C 310.801 366.491,311.584 365.908,312.431 365.469 C 313.279 365.030,314.419 364.266,314.966 363.772 C 315.513 363.278,316.185 362.874,316.460 362.874 C 316.734 362.874,317.184 362.515,317.458 362.076 C 317.732 361.637,318.103 361.277,318.283 361.277 C 318.577 361.277,320.788 359.642,322.601 358.084 C 322.984 357.754,323.879 357.036,324.590 356.487 C 325.301 355.938,326.548 354.905,327.361 354.192 C 328.174 353.478,328.999 352.894,329.195 352.894 C 329.391 352.894,329.888 352.445,330.300 351.896 C 330.713 351.347,331.201 350.898,331.385 350.898 C 331.569 350.898,332.603 350.045,333.682 349.002 C 334.762 347.959,336.921 345.891,338.481 344.406 C 340.041 342.922,341.317 341.530,341.317 341.313 C 341.317 341.096,341.486 340.918,341.692 340.918 C 341.899 340.918,343.381 339.539,344.986 337.853 C 346.591 336.168,348.578 334.088,349.401 333.231 C 350.225 332.374,350.898 331.537,350.898 331.370 C 350.898 331.203,351.527 330.494,352.295 329.795 C 353.064 329.096,353.695 328.393,353.698 328.234 C 353.700 328.074,354.419 327.173,355.294 326.230 C 356.170 325.287,356.886 324.339,356.886 324.122 C 356.886 323.905,357.156 323.624,357.485 323.498 C 357.814 323.371,358.084 323.086,358.084 322.864 C 358.084 322.642,358.629 321.808,359.295 321.011 C 359.962 320.213,360.659 319.366,360.846 319.129 C 361.319 318.525,364.984 313.264,365.469 312.492 C 365.689 312.143,366.811 310.477,367.964 308.789 C 369.117 307.102,370.060 305.557,370.060 305.356 C 370.060 305.155,370.240 304.990,370.459 304.990 C 370.679 304.990,370.858 304.631,370.858 304.192 C 370.858 303.752,371.009 303.393,371.193 303.393 C 371.378 303.393,371.743 302.989,372.004 302.495 C 372.266 302.001,373.000 300.699,373.637 299.601 C 374.273 298.503,375.363 296.527,376.060 295.210 C 376.756 293.892,377.486 292.618,377.681 292.378 C 377.877 292.139,377.919 291.824,377.774 291.680 C 377.630 291.535,377.721 291.417,377.977 291.417 C 378.234 291.417,378.443 291.172,378.443 290.872 C 378.443 290.572,378.815 289.854,379.270 289.275 C 379.726 288.697,380.009 288.224,379.901 288.224 C 379.793 288.224,380.319 286.961,381.070 285.419 C 381.821 283.876,382.435 282.439,382.435 282.225 C 382.435 282.011,382.630 281.836,382.868 281.836 C 383.105 281.836,383.229 281.623,383.142 281.363 C 383.056 281.103,383.490 279.902,384.107 278.695 C 384.724 277.488,385.230 276.326,385.230 276.113 C 385.230 275.900,385.768 274.585,386.427 273.191 C 387.086 271.797,387.626 270.432,387.627 270.159 C 387.629 269.885,387.873 269.195,388.170 268.626 C 388.467 268.056,388.827 266.968,388.969 266.208 C 389.112 265.448,389.579 264.139,390.007 263.299 C 390.435 262.460,390.903 260.986,391.047 260.023 C 391.192 259.061,391.458 258.182,391.640 258.070 C 391.821 257.957,392.091 257.059,392.239 256.074 C 392.386 255.088,392.669 254.182,392.867 254.059 C 393.065 253.937,393.135 253.689,393.023 253.508 C 392.911 253.327,393.080 252.556,393.398 251.795 C 393.716 251.034,394.054 249.981,394.149 249.457 C 394.245 248.932,394.805 246.527,395.394 244.112 C 395.984 241.697,396.530 239.271,396.608 238.723 C 396.687 238.174,396.930 236.916,397.150 235.928 C 397.370 234.940,397.675 232.784,397.828 231.138 C 397.981 229.491,398.243 227.964,398.409 227.745 C 399.216 226.683,399.800 215.367,399.800 200.832 C 399.800 185.676,399.743 185.000,398.501 185.497 " stroke="none" fill="currentColor" ></path><path id="path1" d="M180.240 0.233 C 179.581 0.315,176.976 0.596,174.451 0.858 C 171.926 1.119,169.770 1.446,169.661 1.583 C 169.551 1.720,167.305 2.113,164.671 2.457 C 162.036 2.800,158.892 3.357,157.685 3.694 C 156.477 4.032,154.546 4.434,153.393 4.587 C 152.241 4.740,151.297 4.993,151.297 5.149 C 151.297 5.305,149.954 5.659,148.312 5.935 C 146.670 6.211,145.233 6.587,145.119 6.771 C 145.006 6.955,143.969 7.316,142.816 7.573 C 141.662 7.831,140.359 8.197,139.920 8.386 C 139.481 8.576,138.224 9.000,137.126 9.329 C 133.863 10.306,130.387 11.533,129.646 11.968 C 129.265 12.192,128.726 12.377,128.449 12.379 C 128.171 12.381,127.046 12.824,125.948 13.364 C 124.850 13.904,123.678 14.352,123.342 14.359 C 123.007 14.366,122.378 14.615,121.945 14.913 C 121.512 15.211,120.484 15.674,119.661 15.942 C 118.837 16.210,118.164 16.605,118.164 16.821 C 118.164 17.036,118.008 17.117,117.819 17.000 C 117.629 16.882,116.740 17.141,115.842 17.575 C 114.945 18.008,114.022 18.363,113.792 18.363 C 113.562 18.363,113.373 18.514,113.373 18.699 C 113.373 18.883,112.655 19.271,111.776 19.561 C 110.898 19.851,110.180 20.203,110.180 20.343 C 110.180 20.483,109.506 20.839,108.683 21.134 C 107.859 21.428,107.096 21.787,106.986 21.931 C 106.876 22.075,105.774 22.682,104.536 23.280 C 103.298 23.877,101.655 24.794,100.884 25.317 C 100.114 25.840,99.106 26.387,98.644 26.534 C 98.182 26.680,97.804 26.968,97.804 27.173 C 97.804 27.377,97.566 27.545,97.274 27.545 C 96.982 27.545,95.860 28.111,94.779 28.802 C 90.997 31.223,89.617 32.139,89.154 32.535 C 88.897 32.754,87.685 33.541,86.459 34.283 C 85.234 35.024,84.232 35.788,84.232 35.979 C 84.232 36.171,84.033 36.327,83.790 36.327 C 83.547 36.327,82.604 36.910,81.694 37.621 C 80.784 38.333,79.860 39.056,79.641 39.228 C 79.421 39.400,77.492 40.881,75.355 42.519 C 73.217 44.158,71.122 45.815,70.699 46.202 C 70.276 46.589,68.617 48.074,67.011 49.501 C 64.231 51.972,53.440 62.678,50.312 66.068 C 46.402 70.305,36.727 82.658,36.727 83.412 C 36.727 83.621,36.502 83.936,36.228 84.112 C 35.771 84.404,33.134 88.053,33.134 88.393 C 33.134 88.473,32.181 89.949,31.016 91.674 C 26.341 98.598,16.686 116.961,15.741 120.726 C 15.599 121.293,15.345 121.756,15.176 121.756 C 15.008 121.756,14.762 122.298,14.629 122.960 C 14.497 123.623,13.936 125.122,13.382 126.292 C 12.828 127.463,12.375 128.707,12.375 129.057 C 12.375 129.407,12.220 129.789,12.031 129.906 C 11.841 130.023,11.456 130.977,11.173 132.026 C 10.891 133.074,10.344 134.651,9.957 135.529 C 9.571 136.407,9.122 137.844,8.961 138.723 C 8.799 139.601,8.558 140.409,8.425 140.519 C 8.155 140.741,7.066 144.538,6.135 148.503 C 5.800 149.930,5.418 151.367,5.286 151.697 C 4.694 153.174,3.106 161.126,2.496 165.669 C 2.127 168.413,1.714 170.749,1.579 170.858 C -0.343 172.412,-0.299 225.222,1.627 228.837 C 1.830 229.218,1.997 230.027,1.999 230.633 C 2.005 232.888,4.482 245.833,5.304 247.904 C 5.435 248.234,5.751 249.581,6.008 250.898 C 6.264 252.216,6.610 253.473,6.777 253.693 C 6.944 253.912,7.308 255.080,7.585 256.287 C 7.862 257.495,8.221 258.663,8.383 258.882 C 8.545 259.102,8.904 260.269,9.181 261.477 C 9.458 262.685,9.903 264.122,10.171 264.671 C 10.439 265.220,11.058 266.926,11.548 268.463 C 12.037 270.000,12.877 272.198,13.413 273.347 C 13.950 274.496,14.497 275.978,14.629 276.640 C 14.762 277.303,15.008 277.844,15.176 277.844 C 15.345 277.844,15.597 278.300,15.736 278.857 C 15.876 279.414,16.535 281.076,17.200 282.550 C 18.238 284.850,19.536 287.455,24.503 297.206 C 24.951 298.084,25.537 299.028,25.806 299.304 C 26.075 299.580,26.409 300.163,26.548 300.601 C 26.687 301.039,26.968 301.397,27.173 301.397 C 27.377 301.397,27.545 301.630,27.545 301.914 C 27.545 302.604,32.330 307.352,33.782 308.104 C 34.414 308.431,35.020 308.816,35.130 308.959 C 35.595 309.565,39.855 311.359,41.426 311.609 C 42.364 311.759,43.228 312.037,43.346 312.228 C 43.624 312.678,54.412 312.682,54.910 312.232 C 55.119 312.044,58.699 311.661,62.865 311.381 C 67.032 311.101,70.714 310.737,71.049 310.573 C 71.383 310.408,72.551 310.063,73.643 309.805 C 74.736 309.547,75.724 309.208,75.839 309.051 C 75.954 308.894,76.502 308.567,77.057 308.324 C 78.597 307.650,80.595 305.833,81.304 304.463 C 81.654 303.786,82.181 302.992,82.475 302.697 C 82.770 302.403,83.129 301.271,83.273 300.183 C 83.418 299.094,83.690 298.204,83.878 298.204 C 84.067 298.204,84.268 272.829,84.326 241.816 L 84.431 185.429 85.629 183.095 C 87.757 178.948,93.061 174.451,95.825 174.451 C 96.229 174.451,96.671 174.271,96.806 174.052 C 97.110 173.561,130.997 173.495,131.557 173.985 C 131.765 174.167,132.728 174.542,133.696 174.818 C 137.388 175.870,140.913 178.960,143.040 183.009 L 144.311 185.429 144.417 241.232 C 144.531 301.999,144.381 298.216,146.634 297.067 C 147.113 296.823,149.212 296.257,151.297 295.810 C 153.383 295.363,155.879 294.821,156.844 294.606 C 161.360 293.598,165.327 290.515,167.471 286.347 L 168.663 284.032 168.769 214.205 C 168.828 175.800,169.027 144.183,169.213 143.945 C 169.399 143.707,169.677 142.986,169.831 142.342 C 170.917 137.810,176.773 132.513,181.398 131.880 C 182.420 131.740,183.351 131.470,183.468 131.282 C 183.775 130.784,214.662 130.839,214.970 131.337 C 215.106 131.557,215.633 131.737,216.141 131.737 C 218.708 131.737,223.818 134.675,225.549 137.146 C 226.098 137.929,226.784 138.829,227.074 139.145 C 227.364 139.461,228.033 141.022,228.560 142.614 L 229.520 145.509 229.531 208.283 C 229.536 242.809,229.676 271.057,229.840 271.056 C 230.533 271.051,233.462 270.119,235.130 269.374 C 236.118 268.933,237.680 268.233,238.601 267.819 C 239.522 267.405,240.387 267.066,240.523 267.066 C 240.659 267.066,241.752 266.617,242.952 266.068 C 244.152 265.519,245.210 265.070,245.303 265.070 C 246.754 265.070,251.282 260.307,252.134 257.884 C 252.481 256.896,252.974 255.729,253.229 255.289 C 253.575 254.694,253.743 234.904,253.892 177.445 C 254.080 105.107,254.134 100.326,254.788 99.202 C 255.171 98.543,255.485 97.859,255.487 97.681 C 255.497 96.278,259.926 92.092,263.065 90.518 L 265.652 89.222 284.024 89.222 L 302.395 89.222 304.904 90.535 C 307.526 91.907,308.663 92.712,309.738 93.957 C 310.091 94.365,310.610 94.943,310.893 95.240 C 311.175 95.537,311.983 96.999,312.689 98.489 L 313.972 101.198 314.080 163.772 C 314.201 233.598,313.933 227.587,316.830 225.449 C 317.500 224.955,318.549 224.192,319.161 223.752 C 319.774 223.313,320.857 222.460,321.567 221.856 C 322.278 221.252,323.001 220.758,323.173 220.758 C 323.345 220.758,323.770 220.486,324.118 220.152 C 324.466 219.819,325.918 218.648,327.345 217.550 C 328.772 216.453,330.417 215.154,330.999 214.664 C 331.582 214.173,332.660 213.302,333.395 212.727 C 334.129 212.151,336.460 210.248,338.575 208.496 C 340.689 206.744,342.723 205.059,343.094 204.751 C 347.160 201.383,355.914 193.294,361.233 187.990 C 365.361 183.874,372.822 175.928,374.694 173.653 C 375.326 172.884,376.043 172.076,376.288 171.856 C 376.709 171.478,379.740 167.767,383.655 162.836 C 386.263 159.552,388.568 155.425,389.006 153.257 C 389.157 152.508,389.580 151.267,389.946 150.499 C 390.897 148.501,390.874 138.167,389.914 136.128 C 389.552 135.359,389.047 133.874,388.791 132.828 C 388.535 131.781,388.167 130.827,387.975 130.708 C 387.782 130.589,387.623 130.188,387.621 129.817 C 387.619 129.445,387.176 128.244,386.636 127.146 C 386.096 126.048,385.648 124.892,385.641 124.577 C 385.634 124.262,385.269 123.229,384.830 122.282 C 384.391 121.334,383.654 119.706,383.192 118.663 C 380.818 113.307,376.530 104.581,376.079 104.192 C 375.952 104.082,375.399 103.094,374.850 101.996 C 373.518 99.332,367.442 89.273,366.170 87.625 C 366.001 87.405,365.519 86.691,365.099 86.038 C 364.679 85.385,364.179 84.667,363.989 84.442 C 363.798 84.216,362.379 82.325,360.837 80.240 C 357.026 75.088,356.353 74.196,355.888 73.689 C 355.669 73.449,354.891 72.535,354.160 71.656 C 350.901 67.742,349.705 66.383,346.707 63.182 C 344.950 61.306,343.177 59.482,342.765 59.127 C 342.354 58.773,341.815 58.247,341.568 57.959 C 341.320 57.671,340.607 56.952,339.982 56.362 C 339.357 55.772,337.635 54.122,336.154 52.695 C 334.673 51.267,332.511 49.291,331.349 48.303 C 330.187 47.315,329.036 46.327,328.790 46.108 C 327.939 45.348,325.432 43.310,324.369 42.515 C 323.783 42.076,322.990 41.447,322.607 41.118 C 322.224 40.788,321.023 39.896,319.938 39.134 C 318.852 38.372,317.784 37.606,317.565 37.432 C 315.357 35.684,314.009 34.731,313.746 34.731 C 313.572 34.731,313.193 34.505,312.903 34.228 C 312.214 33.573,307.073 30.175,305.788 29.526 C 305.240 29.249,304.701 28.899,304.591 28.748 C 304.481 28.598,303.403 27.928,302.196 27.260 C 300.988 26.591,298.091 24.954,295.759 23.621 C 293.426 22.289,291.046 21.080,290.469 20.935 C 289.893 20.790,289.421 20.541,289.421 20.380 C 289.421 20.219,288.703 19.851,287.824 19.561 C 286.946 19.271,286.228 18.883,286.228 18.699 C 286.228 18.514,286.052 18.363,285.838 18.363 C 285.624 18.363,284.284 17.829,282.859 17.177 C 281.434 16.524,279.813 15.876,279.256 15.736 C 278.699 15.597,278.244 15.355,278.244 15.199 C 278.244 15.042,277.345 14.670,276.248 14.371 C 275.150 14.072,274.251 13.700,274.251 13.544 C 274.251 13.388,273.764 13.138,273.168 12.988 C 272.571 12.839,271.359 12.390,270.473 11.992 C 269.587 11.594,268.236 11.134,267.471 10.971 C 266.706 10.807,265.718 10.441,265.275 10.156 C 264.833 9.872,263.348 9.410,261.976 9.131 C 260.604 8.851,259.481 8.502,259.481 8.355 C 259.481 8.208,258.409 7.877,257.099 7.619 C 255.788 7.361,254.623 6.999,254.509 6.815 C 254.395 6.630,253.087 6.255,251.602 5.981 C 250.117 5.707,248.723 5.372,248.503 5.236 C 247.792 4.798,239.841 3.161,235.329 2.525 C 232.914 2.185,230.669 1.804,230.339 1.679 C 227.445 0.579,186.864 -0.592,180.240 0.233 " stroke="none" fill="currentColor" ></path><path id="path2" d="" stroke="none" fill="currentColor" ></path><path id="path3" d="" stroke="none" fill="currentColor" ></path><path id="path4" d="" stroke="none" fill="currentColor" ></path></g></svg>